<svg width="19" height="17" viewBox="0 0 19 17" fill="none" xmlns="http://www.w3.org/2000/svg">
<path d="M18.1437 11.6812L14.6436 10.1811C14.4941 10.1174 14.328 10.104 14.1701 10.1429C14.0123 10.1818 13.8714 10.2709 13.7686 10.3968L12.2186 12.2906C9.78598 11.1436 7.82828 9.18589 6.68132 6.75327L8.5751 5.20324C8.70125 5.10064 8.79054 4.95973 8.82945 4.80184C8.86836 4.64396 8.85476 4.47769 8.79073 4.32822L7.29071 0.828162C7.22043 0.667037 7.09613 0.535484 6.93925 0.456186C6.78236 0.376889 6.60273 0.354818 6.43132 0.393779L3.18126 1.14379C3.016 1.18196 2.86855 1.27501 2.76298 1.40776C2.65741 1.54052 2.59996 1.70513 2.6 1.87474C2.6 9.89051 9.09699 16.375 17.1003 16.375C17.2699 16.3751 17.4346 16.3177 17.5674 16.2121C17.7002 16.1065 17.7933 15.9591 17.8315 15.7937L18.5815 12.5437C18.6202 12.3714 18.5977 12.1911 18.5178 12.0337C18.4379 11.8762 18.3056 11.7516 18.1437 11.6812Z" fill="white"/>
</svg>
