<svg width="17" height="17" viewBox="0 0 17 17" fill="none" xmlns="http://www.w3.org/2000/svg">
<path d="M10.6 0.625C7.504 0.625 5 3.129 5 6.225C5 7.617 5.4 8.921 6.128 10.097C6.888 11.329 7.888 12.385 8.656 13.617C9.032 14.217 9.304 14.777 9.592 15.425C9.8 15.865 9.968 16.625 10.6 16.625C11.232 16.625 11.4 15.865 11.6 15.425C11.896 14.777 12.16 14.217 12.536 13.617C13.304 12.393 14.304 11.337 15.064 10.097C15.8 8.921 16.2 7.617 16.2 6.225C16.2 3.129 13.696 0.625 10.6 0.625ZM10.6 8.425C9.496 8.425 8.6 7.529 8.6 6.425C8.6 5.321 9.496 4.425 10.6 4.425C11.704 4.425 12.6 5.321 12.6 6.425C12.6 7.529 11.704 8.425 10.6 8.425Z" fill="white"/>
</svg>
