<svg width="19" height="17" viewBox="0 0 19 17" fill="none" xmlns="http://www.w3.org/2000/svg">
<path d="M16.9 0.125H4.1C3.22 0.125 2.508 1.025 2.508 2.125L2.5 14.125C2.5 15.225 3.22 16.125 4.1 16.125H16.9C17.78 16.125 18.5 15.225 18.5 14.125V2.125C18.5 1.025 17.78 0.125 16.9 0.125ZM16.58 4.375L10.924 8.795C10.668 8.995 10.332 8.995 10.076 8.795L4.42 4.375C4.22 4.215 4.1 3.945 4.1 3.655C4.1 2.985 4.684 2.585 5.14 2.935L10.5 7.125L15.86 2.935C16.316 2.585 16.9 2.985 16.9 3.655C16.9 3.945 16.78 4.215 16.58 4.375Z" fill="white"/>
</svg>
