<svg width="39" height="30" viewBox="0 0 39 30" fill="none" xmlns="http://www.w3.org/2000/svg">
<ellipse cx="19.5" cy="15" rx="18.6667" ry="15" fill="#E4E8FD"/>
<path d="M15.9366 22H13.0091V12.6529H15.9366V22ZM14.4713 11.3779C13.5352 11.3779 12.7758 10.6091 12.7758 9.68097C12.7758 9.23515 12.9545 8.80759 13.2724 8.49235C13.5904 8.1771 14.0216 8 14.4713 8C14.9209 8 15.3522 8.1771 15.6701 8.49235C15.9881 8.80759 16.1667 9.23515 16.1667 9.68097C16.1667 10.6091 15.4071 11.3779 14.4713 11.3779ZM26.8934 22H23.9722V17.4499C23.9722 16.3655 23.9501 14.9748 22.4501 14.9748C20.928 14.9748 20.6948 16.153 20.6948 17.3718V22H17.7704V12.6529H20.5782V13.9279H20.6191C21.01 13.1936 21.9647 12.4185 23.3891 12.4185C26.3519 12.4185 26.8965 14.353 26.8965 16.8655V22H26.8934Z" fill="#355EFC"/>
</svg>
