<svg width="39" height="30" viewBox="0 0 39 30" fill="none" xmlns="http://www.w3.org/2000/svg">
<ellipse cx="19.5" cy="15" rx="18.6667" ry="15" fill="#E4E8FD"/>
<path d="M25.5609 12.4891C25.5698 12.6422 25.5698 12.7953 25.5698 12.9484C25.5698 17.6187 22.6828 23 17.4061 23C15.7805 23 14.2703 22.4203 13 21.4141C13.231 21.4469 13.453 21.4578 13.6929 21.4578C15.0342 21.4578 16.269 20.9 17.2551 19.9485C15.9937 19.9156 14.9365 18.8984 14.5723 17.4984C14.75 17.5312 14.9277 17.5531 15.1142 17.5531C15.3718 17.5531 15.6295 17.5093 15.8693 17.4328C14.5546 17.1047 13.5685 15.6828 13.5685 13.9656V13.9219C13.9505 14.1844 14.3947 14.3484 14.8655 14.3703C14.0926 13.7359 13.5863 12.6531 13.5863 11.4281C13.5863 10.7719 13.7284 10.1703 13.9771 9.6453C15.3896 11.789 17.5127 13.189 19.8934 13.3422C19.849 13.0797 19.8223 12.8063 19.8223 12.5328C19.8223 10.5859 21.1015 9 22.6916 9C23.5178 9 24.2639 9.42656 24.7881 10.1156C25.4365 9.96251 26.0584 9.66718 26.6091 9.2625C26.3959 10.0828 25.9429 10.7719 25.3477 11.2094C25.9251 11.1328 26.4848 10.9359 27 10.6625C26.6092 11.3625 26.1206 11.9859 25.5609 12.4891Z" fill="#355EFC"/>
</svg>
