<svg width="48" height="48" viewBox="0 0 48 48" fill="none" xmlns="http://www.w3.org/2000/svg">
<circle cx="24" cy="24" r="24" fill="#355EFC"/>
<path d="M33.6485 28.3664L30.255 27.9789C29.44 27.8854 28.6384 28.166 28.0639 28.7404L25.6056 31.1987C21.8247 29.2749 18.7251 26.1886 16.8012 22.3943L19.2729 19.9227C19.8474 19.3482 20.1279 18.5465 20.0344 17.7316L19.647 14.3648C19.4866 13.0154 18.351 12 16.9883 12H14.677C13.1672 12 11.9114 13.2559 12.0049 14.7656C12.713 26.1753 21.838 35.287 33.2343 35.9951C34.744 36.0886 35.9999 34.8327 35.9999 33.323V31.0117C36.0132 29.6623 34.9979 28.5267 33.6485 28.3664Z" fill="white"/>
</svg>
