<svg width="48" height="48" viewBox="0 0 48 48" fill="none" xmlns="http://www.w3.org/2000/svg">
<circle cx="24" cy="24" r="24" fill="#355EFC"/>
<path d="M29.0043 22.2857C31.2181 22.2857 32.9919 19.9886 32.9919 17.1429C32.9919 14.2971 31.2181 12 29.0043 12C26.7905 12 25.0035 14.2971 25.0035 17.1429C25.0035 19.9886 26.7905 22.2857 29.0043 22.2857ZM18.3354 22.2857C20.5492 22.2857 22.3229 19.9886 22.3229 17.1429C22.3229 14.2971 20.5492 12 18.3354 12C16.1215 12 14.3345 14.2971 14.3345 17.1429C14.3345 19.9886 16.1215 22.2857 18.3354 22.2857ZM18.3354 25.7143C15.228 25.7143 9 27.72 9 31.7143V34.2857C9 35.2286 9.60013 36 10.3336 36H26.3371C27.0706 36 27.6707 35.2286 27.6707 34.2857V31.7143C27.6707 27.72 21.4427 25.7143 18.3354 25.7143ZM29.0043 25.7143C28.6176 25.7143 28.1775 25.7486 27.7107 25.8C27.7374 25.8171 27.7507 25.8514 27.7641 25.8686C29.2844 27.2914 30.338 29.1943 30.338 31.7143V34.2857C30.338 34.8857 30.2446 35.4686 30.0979 36H37.0061C37.7396 36 38.3397 35.2286 38.3397 34.2857V31.7143C38.3397 27.72 32.1117 25.7143 29.0043 25.7143Z" fill="white"/>
</svg>
